<svg width="800" height="714" viewBox="0 0 800 714" fill="none" xmlns="http://www.w3.org/2000/svg">
<path d="M343.287 283.374C334.225 284.546 325.553 288.843 318.99 295.483C312.584 301.733 309.381 308.452 308.287 317.749C307.662 322.436 308.131 332.593 308.99 337.046C312.037 351.421 320.631 364.077 332.896 372.28C336.568 374.78 336.725 374.858 336.881 373.999C338.053 364.546 342.506 353.061 348.287 345.014C351.49 340.483 358.6 333.374 363.131 330.171C366.1 328.139 366.803 327.358 367.35 326.108C371.959 314.624 382.506 306.264 395.084 304.233C398.756 303.608 405.24 303.921 408.99 304.936C416.568 306.889 423.6 311.655 428.365 317.905C430.475 320.718 433.443 326.186 433.443 327.202C433.443 327.436 433.834 327.827 434.303 328.061C437.662 329.858 445.006 336.186 448.756 340.718C456.646 350.171 460.787 359.233 463.365 373.139L463.678 374.702L466.959 372.514C473.6 368.139 478.521 363.139 483.131 356.264C490.24 345.639 493.209 333.608 492.115 319.78C491.646 313.452 490.709 309.858 488.443 305.093C483.678 295.327 473.521 287.202 462.35 284.389C450.865 281.421 439.459 283.218 428.053 289.702C423.287 292.358 418.834 294.155 413.6 295.561C409.771 296.577 408.678 296.655 401.959 296.811C389.928 297.124 383.99 295.718 372.428 289.78C368.756 287.905 364.146 285.874 362.193 285.249C356.1 283.296 349.146 282.593 343.287 283.374Z" fill="#0040E0"/>
<path d="M397.115 311.108C390.084 311.889 382.896 315.796 378.521 321.03C376.412 323.53 373.99 327.983 373.209 330.561C372.818 331.968 372.428 332.358 368.678 334.858C360.475 340.327 353.912 347.749 349.537 356.577C346.959 361.811 345.709 365.327 344.537 370.874C343.365 376.264 343.365 387.593 344.537 392.983C348.756 412.358 361.803 427.827 379.771 434.78C409.693 446.343 443.131 430.718 453.678 400.249C462.115 375.874 452.896 349.077 431.1 334.624L427.584 332.28L426.568 329.468C424.615 323.999 419.615 317.983 414.459 315.014C409.537 311.968 402.74 310.483 397.115 311.108ZM378.834 357.905C382.115 361.811 387.662 365.249 392.975 366.733C396.646 367.749 403.131 367.827 406.803 366.889C412.428 365.483 418.131 361.889 421.959 357.28L423.678 355.249L425.787 357.436C429.85 361.733 432.975 367.358 434.537 373.218C435.787 377.671 435.787 385.561 434.537 390.249C431.881 400.796 424.771 409.311 414.85 413.999C409.693 416.421 406.49 417.046 400.162 417.046C396.178 417.046 393.99 416.889 392.115 416.421C379.146 413.139 369.146 403.296 365.709 390.483C364.85 387.28 364.537 379.858 365.084 376.264C365.709 372.358 367.662 367.124 369.771 363.608C371.646 360.561 376.412 355.014 376.803 355.561C377.037 355.639 377.896 356.733 378.834 357.905Z" fill="#00CDE0"/>
<path d="M0.0523682 353.452C2.87422 445.493 180.838 517.874 399.964 517.874V482.315C223.583 481.435 38.5673 427.411 35.6033 353.452H0.0523682Z" fill="#0040E0"/>
<path d="M598.819 13.7492C517.7 -29.8273 366.036 88.1084 256.463 277.875L287.259 295.655C376.208 143.341 515.509 10.1274 581.039 44.5407L598.819 13.7492Z" fill="#00CDE0"/>
<path d="M0.0523682 353.452C2.87422 261.41 180.838 189.029 399.964 189.029V224.588C223.583 225.468 38.5673 279.497 35.6033 353.452H0.0523682Z" fill="#0040E0"/>
<path d="M200.182 6.8302C121.881 55.295 148.18 245.608 257.743 435.379L288.539 417.594C201.106 264.41 155.392 77.1632 217.957 37.6262L200.182 6.8302Z" fill="#0086E0"/>
<path d="M201.182 702.01C122.881 653.546 149.175 463.228 258.743 273.462L289.539 291.242C202.106 444.431 156.392 631.677 218.957 671.219L201.182 702.01Z" fill="#00CDE0"/>
<path d="M196.547 9.05215C277.669 -34.5244 429.334 83.4069 538.902 273.178L508.102 290.953C419.153 138.644 279.851 5.43929 214.322 39.8481L196.547 9.05215Z" fill="#0086E0"/>
<path d="M799.912 353.452C797.09 261.41 619.118 189.029 400 189.029V224.588C576.377 225.468 761.397 279.497 764.361 353.452H799.912Z" fill="#0040E0"/>
<path d="M196.618 699.299C197.093 699.588 197.569 699.872 198.049 700.144C278.674 746.697 431.898 628.393 542.341 437.107L511.71 419.038C422.059 572.707 281.078 707.036 216.188 669.57C215.531 669.191 214.883 668.796 214.246 668.383L196.618 699.299Z" fill="#00CDE0"/>
<path d="M600.098 699.797C518.967 743.347 367.315 625.416 257.761 435.663L256.605 433.663L286.984 415.181C375.79 568.503 516.22 703.419 582.194 669.072L600.098 699.797Z" fill="#0086E0"/>
<path d="M799.912 349.008C799.934 349.745 799.948 350.487 799.948 351.23C799.948 444.329 620.882 517.874 400 517.874V482.315C577.808 481.435 764.397 426.522 764.397 351.652C764.397 350.77 764.37 349.888 764.317 349.008H799.912Z" fill="#0040E0"/>
<path d="M596.517 701.984C674.764 653.483 648.457 463.197 538.915 273.462L536.964 270.085L505.76 287.127L505.968 287.491C594.632 441.062 641.6 630.62 579.07 670.988L596.517 701.984Z" fill="#0086E0"/>
<path d="M597.627 12.5272C675.924 60.992 649.625 251.309 540.066 441.076L509.27 423.296C596.708 270.107 642.413 82.8602 579.852 43.3188L597.627 12.5272Z" fill="#00CDE0"/>
</svg>
